<?xml version="1.0" encoding="utf-8"?>
<!-- Generator: Adobe Illustrator 16.0.0, SVG Export Plug-In . SVG Version: 6.00 Build 0)  -->
<!DOCTYPE svg PUBLIC "-//W3C//DTD SVG 1.1//EN" "http://www.w3.org/Graphics/SVG/1.1/DTD/svg11.dtd">
<svg version="1.1" id="Layer_1" xmlns="http://www.w3.org/2000/svg" xmlns:xlink="http://www.w3.org/1999/xlink" x="0px" y="0px"
	 width="443.226px" height="83.135px" viewBox="0 0 443.226 83.135" enable-background="new 0 0 443.226 83.135"
	 xml:space="preserve">
<path fill="#FFFFFF" d="M23.375,15.672c0-1.22-0.21-2.167-0.629-2.841c-0.419-0.674-1.227-1.011-2.421-1.011
	c-0.686,0-1.271,0.159-1.754,0.477c-0.483,0.318-0.883,0.737-1.201,1.259c-0.318,0.521-0.553,1.099-0.706,1.735
	c-0.152,0.635-0.229,1.258-0.229,1.868v10.83h-4.729V15.672c0-1.22-0.209-2.167-0.629-2.841c-0.419-0.674-1.227-1.011-2.421-1.011
	c-0.687,0-1.271,0.159-1.754,0.477c-0.483,0.318-0.89,0.737-1.22,1.259c-0.331,0.521-0.572,1.099-0.725,1.735
	c-0.152,0.635-0.229,1.258-0.229,1.868v10.83H0V8.16h3.966l0.381,2.631c0.559-0.916,1.309-1.665,2.25-2.25
	c0.94-0.584,2.072-0.877,3.394-0.877c1.398,0,2.567,0.286,3.508,0.858c0.94,0.572,1.665,1.367,2.173,2.383
	c0.584-1.042,1.392-1.843,2.421-2.402c1.029-0.559,2.218-0.839,3.565-0.839c2.135,0,3.743,0.642,4.823,1.926
	c1.081,1.284,1.621,2.955,1.621,5.014v13.384h-4.728V15.672z M49.97,28.16c-0.292,0.089-0.731,0.134-1.315,0.134
	c-1.042,0-1.843-0.28-2.402-0.839c-0.559-0.56-0.877-1.208-0.953-1.945c-0.458,0.813-1.22,1.513-2.288,2.097
	s-2.313,0.877-3.737,0.877c-1.169,0-2.206-0.171-3.108-0.515s-1.652-0.801-2.25-1.373c-0.598-0.572-1.049-1.233-1.354-1.983
	c-0.305-0.75-0.458-1.532-0.458-2.345c0-0.94,0.172-1.779,0.515-2.517c0.343-0.737,0.82-1.373,1.43-1.907
	c0.61-0.534,1.322-0.947,2.135-1.239s1.69-0.477,2.631-0.553l5.834-0.419v-1.22c0-0.941-0.222-1.697-0.667-2.269
	c-0.445-0.572-1.341-0.858-2.688-0.858c-1.119,0-1.989,0.242-2.612,0.725c-0.623,0.483-0.959,1.182-1.01,2.097h-4.614
	c0.076-1.119,0.336-2.084,0.782-2.898c0.445-0.813,1.036-1.481,1.773-2.002s1.595-0.909,2.574-1.163
	c0.979-0.254,2.015-0.381,3.108-0.381c1.703,0,3.222,0.299,4.557,0.896c1.334,0.598,2.294,1.646,2.879,3.146
	c0.254,0.636,0.413,1.296,0.477,1.983s0.096,1.36,0.096,2.021v7.359c0,0.458,0.083,0.782,0.248,0.972
	c0.166,0.191,0.451,0.286,0.858,0.286c0.204,0,0.343-0.013,0.419-0.038c0.077-0.025,0.14-0.038,0.191-0.038v3.508
	C50.612,27.938,50.262,28.071,49.97,28.16z M39.617,19.562c-0.737,0.051-1.398,0.292-1.983,0.725
	c-0.585,0.432-0.877,1.055-0.877,1.869c0,0.763,0.286,1.366,0.858,1.811c0.572,0.445,1.227,0.667,1.964,0.667
	c1.5,0,2.72-0.388,3.661-1.163c0.94-0.775,1.411-1.9,1.411-3.375V19.18L39.617,19.562z M67.299,15.825
	c0-1.169-0.229-2.084-0.687-2.746c-0.458-0.661-1.322-0.991-2.593-0.991c-0.839,0-1.538,0.235-2.097,0.706
	c-0.559,0.47-1.004,1.074-1.334,1.811c-0.356,0.788-0.553,1.659-0.591,2.612c-0.038,0.954-0.057,1.85-0.057,2.688v8.084h-4.767V8.16
	h4.004l0.343,2.555c0.584-1.042,1.417-1.812,2.498-2.307s2.193-0.744,3.336-0.744c1.068,0,2.015,0.178,2.841,0.534
	s1.525,0.845,2.098,1.468c0.572,0.623,1.01,1.366,1.315,2.23c0.305,0.865,0.458,1.818,0.458,2.86v13.232h-4.767V15.825z
	 M89.948,25.396c-0.483,0.966-1.233,1.722-2.25,2.269c-1.017,0.547-2.161,0.82-3.432,0.82c-1.067,0-2.021-0.171-2.86-0.515
	s-1.557-0.826-2.154-1.449c-0.597-0.623-1.055-1.366-1.373-2.23s-0.477-1.831-0.477-2.898V8.16h4.766v12.164
	c0,1.169,0.254,2.091,0.763,2.765s1.398,1.01,2.669,1.01c0.559,0,1.036-0.095,1.43-0.286c0.394-0.191,0.731-0.426,1.011-0.706
	c0.584-0.534,0.972-1.208,1.163-2.021c0.19-0.813,0.286-1.627,0.286-2.44V8.16h4.767v19.829h-3.966L89.948,25.396z M110.213,4.004
	c-0.47-0.051-1.023-0.076-1.659-0.076c-0.864,0-1.513,0.222-1.945,0.667c-0.432,0.445-0.648,1.023-0.648,1.735v1.83h5.3v3.928h-5.3
	v15.901h-4.766V12.088H97.84V8.16h3.355V6.254c0-1.831,0.591-3.331,1.773-4.5C104.15,0.585,105.809,0,107.944,0
	c0.687,0,1.297,0.032,1.831,0.095c0.534,0.064,1.169,0.172,1.907,0.324v3.813C111.173,4.131,110.684,4.055,110.213,4.004z
	 M130.88,28.16c-0.292,0.089-0.731,0.134-1.315,0.134c-1.042,0-1.843-0.28-2.402-0.839c-0.559-0.56-0.877-1.208-0.953-1.945
	c-0.458,0.813-1.22,1.513-2.288,2.097s-2.313,0.877-3.737,0.877c-1.169,0-2.206-0.171-3.108-0.515s-1.652-0.801-2.25-1.373
	c-0.598-0.572-1.049-1.233-1.354-1.983c-0.305-0.75-0.458-1.532-0.458-2.345c0-0.94,0.172-1.779,0.515-2.517
	c0.343-0.737,0.82-1.373,1.43-1.907c0.61-0.534,1.322-0.947,2.135-1.239s1.69-0.477,2.631-0.553l5.834-0.419v-1.22
	c0-0.941-0.222-1.697-0.667-2.269c-0.445-0.572-1.341-0.858-2.688-0.858c-1.119,0-1.989,0.242-2.612,0.725
	c-0.623,0.483-0.959,1.182-1.01,2.097h-4.614c0.076-1.119,0.336-2.084,0.782-2.898c0.445-0.813,1.036-1.481,1.773-2.002
	s1.595-0.909,2.574-1.163c0.979-0.254,2.015-0.381,3.108-0.381c1.703,0,3.222,0.299,4.557,0.896
	c1.334,0.598,2.294,1.646,2.879,3.146c0.254,0.636,0.413,1.296,0.477,1.983s0.096,1.36,0.096,2.021v7.359
	c0,0.458,0.083,0.782,0.248,0.972c0.166,0.191,0.451,0.286,0.858,0.286c0.204,0,0.343-0.013,0.419-0.038
	c0.077-0.025,0.14-0.038,0.191-0.038v3.508C131.522,27.938,131.172,28.071,130.88,28.16z M120.527,19.562
	c-0.737,0.051-1.398,0.292-1.983,0.725c-0.585,0.432-0.877,1.055-0.877,1.869c0,0.763,0.286,1.366,0.858,1.811
	c0.572,0.445,1.227,0.667,1.964,0.667c1.5,0,2.72-0.388,3.661-1.163c0.94-0.775,1.411-1.9,1.411-3.375V19.18L120.527,19.562z
	 M143.214,28.256c-2.008,0-3.508-0.541-4.5-1.621c-0.992-1.081-1.487-2.574-1.487-4.48V12.088h-3.623V8.16h3.623V3.127l4.767-1.182
	V8.16h4.995v3.928h-4.995v9.647c0,0.762,0.178,1.315,0.534,1.659s0.915,0.515,1.678,0.515c0.509,0,0.985-0.013,1.43-0.038
	s0.998-0.076,1.659-0.152v4.003C145.922,28.078,144.562,28.256,143.214,28.256z M163.575,25.396
	c-0.483,0.966-1.233,1.722-2.25,2.269c-1.017,0.547-2.161,0.82-3.432,0.82c-1.067,0-2.021-0.171-2.86-0.515
	s-1.557-0.826-2.154-1.449c-0.597-0.623-1.055-1.366-1.373-2.23c-0.318-0.864-0.477-1.831-0.477-2.898V8.16h4.766v12.164
	c0,1.169,0.254,2.091,0.763,2.765s1.398,1.01,2.669,1.01c0.559,0,1.036-0.095,1.43-0.286c0.394-0.191,0.731-0.426,1.011-0.706
	c0.584-0.534,0.972-1.208,1.163-2.021c0.19-0.813,0.286-1.627,0.286-2.44V8.16h4.767v19.829h-3.966L163.575,25.396z M183.746,12.393
	c-1.678,0-2.949,0.534-3.813,1.602c-0.864,1.067-1.296,2.402-1.296,4.003v9.991h-4.805V8.16h4.042l0.419,2.975
	c0.458-1.144,1.214-1.97,2.269-2.479c1.055-0.508,2.167-0.762,3.336-0.762c0.508,0,1.004,0.038,1.487,0.114v4.576
	C184.801,12.457,184.254,12.393,183.746,12.393z M205.117,28.16c-0.292,0.089-0.73,0.134-1.315,0.134
	c-1.042,0-1.843-0.28-2.402-0.839c-0.559-0.56-0.877-1.208-0.953-1.945c-0.458,0.813-1.22,1.513-2.288,2.097
	s-2.313,0.877-3.737,0.877c-1.169,0-2.206-0.171-3.108-0.515s-1.652-0.801-2.25-1.373c-0.598-0.572-1.049-1.233-1.354-1.983
	c-0.305-0.75-0.458-1.532-0.458-2.345c0-0.94,0.172-1.779,0.515-2.517c0.343-0.737,0.82-1.373,1.43-1.907
	c0.61-0.534,1.322-0.947,2.135-1.239s1.69-0.477,2.631-0.553l5.834-0.419v-1.22c0-0.941-0.222-1.697-0.667-2.269
	c-0.445-0.572-1.341-0.858-2.688-0.858c-1.119,0-1.989,0.242-2.612,0.725c-0.623,0.483-0.959,1.182-1.01,2.097h-4.614
	c0.076-1.119,0.336-2.084,0.782-2.898c0.445-0.813,1.036-1.481,1.773-2.002s1.595-0.909,2.574-1.163
	c0.979-0.254,2.015-0.381,3.108-0.381c1.703,0,3.222,0.299,4.557,0.896c1.334,0.598,2.294,1.646,2.879,3.146
	c0.254,0.636,0.413,1.296,0.477,1.983s0.096,1.36,0.096,2.021v7.359c0,0.458,0.082,0.782,0.248,0.972
	c0.165,0.191,0.451,0.286,0.857,0.286c0.203,0,0.344-0.013,0.42-0.038s0.14-0.038,0.19-0.038v3.508
	C205.759,27.938,205.409,28.071,205.117,28.16z M194.765,19.562c-0.737,0.051-1.398,0.292-1.983,0.725
	c-0.585,0.432-0.877,1.055-0.877,1.869c0,0.763,0.286,1.366,0.858,1.811c0.572,0.445,1.227,0.667,1.964,0.667
	c1.5,0,2.72-0.388,3.661-1.163c0.94-0.775,1.411-1.9,1.411-3.375V19.18L194.765,19.562z M218.214,0.496h5.109v4.919h-5.109V0.496z
	 M218.366,8.16h4.843v19.829h-4.843V8.16z M244.124,24.366c-0.318,0.712-0.731,1.322-1.24,1.831
	c-0.813,0.813-1.805,1.398-2.974,1.754c-1.17,0.356-2.44,0.534-3.813,0.534c-1.271,0-2.453-0.184-3.546-0.553
	c-1.094-0.369-2.047-0.947-2.86-1.735c-0.584-0.56-1.08-1.233-1.487-2.021c-0.406-0.788-0.609-1.652-0.609-2.593h4.461
	c0,0.432,0.102,0.864,0.306,1.296c0.203,0.432,0.457,0.775,0.762,1.03c0.382,0.305,0.808,0.527,1.278,0.667
	c0.47,0.14,1.048,0.209,1.734,0.209c0.407,0,0.846-0.032,1.315-0.095c0.471-0.063,0.909-0.185,1.315-0.362
	c0.407-0.178,0.744-0.432,1.011-0.763s0.4-0.763,0.4-1.296c0-0.585-0.178-1.055-0.534-1.411c-0.355-0.355-0.839-0.584-1.448-0.686
	c-0.89-0.127-1.806-0.235-2.746-0.324s-1.855-0.235-2.745-0.438c-0.687-0.152-1.303-0.394-1.85-0.725
	c-0.546-0.331-1.023-0.731-1.43-1.201c-0.407-0.47-0.718-0.991-0.935-1.563c-0.216-0.572-0.324-1.176-0.324-1.811
	c0-1.017,0.191-1.888,0.572-2.612c0.382-0.724,0.864-1.341,1.449-1.849c0.737-0.636,1.614-1.125,2.631-1.468
	s2.148-0.515,3.394-0.515c1.195,0,2.346,0.19,3.451,0.572s2.027,0.966,2.765,1.754c0.534,0.584,0.96,1.227,1.277,1.925
	c0.317,0.699,0.477,1.417,0.477,2.155h-4.538c0-0.381-0.076-0.725-0.229-1.03s-0.343-0.584-0.571-0.839
	c-0.28-0.28-0.655-0.502-1.125-0.667c-0.471-0.166-0.96-0.248-1.469-0.248c-0.355,0-0.699,0.013-1.029,0.038
	s-0.674,0.114-1.029,0.267c-0.433,0.178-0.795,0.445-1.087,0.801s-0.438,0.788-0.438,1.296c0,0.712,0.248,1.201,0.743,1.468
	c0.496,0.267,1.011,0.439,1.545,0.515c0.457,0.051,0.839,0.095,1.144,0.133l0.915,0.114c0.306,0.038,0.623,0.083,0.953,0.134
	c0.331,0.051,0.737,0.114,1.221,0.19c1.576,0.254,2.872,0.858,3.89,1.812c1.017,0.953,1.525,2.218,1.525,3.794
	C244.601,22.815,244.441,23.654,244.124,24.366z M273.254,28.16c-0.292,0.089-0.73,0.134-1.315,0.134
	c-1.042,0-1.843-0.28-2.402-0.839c-0.56-0.56-0.877-1.208-0.953-1.945c-0.458,0.813-1.221,1.513-2.288,2.097
	s-2.313,0.877-3.737,0.877c-1.169,0-2.205-0.171-3.107-0.515s-1.652-0.801-2.25-1.373c-0.597-0.572-1.048-1.233-1.354-1.983
	c-0.305-0.75-0.457-1.532-0.457-2.345c0-0.94,0.171-1.779,0.515-2.517c0.343-0.737,0.819-1.373,1.43-1.907s1.322-0.947,2.136-1.239
	s1.69-0.477,2.631-0.553l5.834-0.419v-1.22c0-0.941-0.223-1.697-0.667-2.269c-0.445-0.572-1.341-0.858-2.688-0.858
	c-1.118,0-1.989,0.242-2.612,0.725s-0.959,1.182-1.011,2.097h-4.613c0.076-1.119,0.337-2.084,0.781-2.898
	c0.445-0.813,1.036-1.481,1.773-2.002s1.595-0.909,2.574-1.163c0.979-0.254,2.015-0.381,3.107-0.381
	c1.703,0,3.222,0.299,4.557,0.896c1.335,0.598,2.294,1.646,2.879,3.146c0.254,0.636,0.413,1.296,0.477,1.983s0.096,1.36,0.096,2.021
	v7.359c0,0.458,0.082,0.782,0.248,0.972c0.165,0.191,0.451,0.286,0.857,0.286c0.203,0,0.344-0.013,0.42-0.038s0.14-0.038,0.19-0.038
	v3.508C273.896,27.938,273.546,28.071,273.254,28.16z M262.901,19.562c-0.737,0.051-1.398,0.292-1.983,0.725
	c-0.584,0.432-0.877,1.055-0.877,1.869c0,0.763,0.286,1.366,0.858,1.811s1.227,0.667,1.964,0.667c1.5,0,2.72-0.388,3.66-1.163
	s1.411-1.9,1.411-3.375V19.18L262.901,19.562z M301.985,23.279c-0.255,0.75-0.61,1.417-1.068,2.002
	c-0.686,0.864-1.607,1.602-2.764,2.212c-1.157,0.61-2.498,0.915-4.023,0.915s-2.885-0.312-4.08-0.934
	c-1.194-0.623-2.136-1.354-2.821-2.193c-0.737-0.94-1.284-2.021-1.64-3.241c-0.356-1.22-0.534-2.555-0.534-4.003
	c0-1.449,0.178-2.784,0.534-4.004c0.355-1.22,0.902-2.301,1.64-3.241c0.686-0.839,1.627-1.57,2.821-2.193
	c1.195-0.623,2.555-0.934,4.08-0.934s2.866,0.305,4.023,0.915c1.156,0.61,2.078,1.348,2.764,2.212
	c0.458,0.584,0.813,1.252,1.068,2.002c0.254,0.75,0.406,1.519,0.457,2.307h-4.689c-0.025-0.356-0.09-0.686-0.191-0.991
	s-0.229-0.585-0.381-0.839c-0.279-0.432-0.674-0.788-1.183-1.068c-0.508-0.28-1.131-0.419-1.868-0.419
	c-0.661,0-1.227,0.114-1.696,0.343c-0.471,0.229-0.871,0.521-1.201,0.877c-0.585,0.636-0.954,1.398-1.106,2.288
	s-0.229,1.805-0.229,2.746c0,0.94,0.076,1.849,0.229,2.726s0.521,1.633,1.106,2.269c0.33,0.356,0.73,0.654,1.201,0.896
	c0.47,0.242,1.035,0.362,1.696,0.362c0.737,0,1.36-0.14,1.868-0.419c0.509-0.28,0.903-0.636,1.183-1.068
	c0.152-0.254,0.279-0.534,0.381-0.839s0.166-0.635,0.191-0.991h4.689C302.392,21.761,302.239,22.53,301.985,23.279z M316.588,12.393
	c-1.678,0-2.949,0.534-3.813,1.602c-0.864,1.067-1.296,2.402-1.296,4.003v9.991h-4.805V8.16h4.042l0.419,2.975
	c0.458-1.144,1.214-1.97,2.269-2.479c1.056-0.508,2.168-0.762,3.337-0.762c0.509,0,1.004,0.038,1.487,0.114v4.576
	C317.643,12.457,317.096,12.393,316.588,12.393z M338.512,18.723c0,0.127-0.006,0.267-0.019,0.419
	c-0.013,0.153-0.02,0.292-0.02,0.419h-13.27c-0.025,0.763,0.089,1.487,0.343,2.174c0.255,0.686,0.623,1.258,1.106,1.716
	c0.355,0.331,0.769,0.616,1.239,0.858c0.47,0.242,1.035,0.362,1.696,0.362c0.687,0,1.252-0.07,1.697-0.21
	c0.444-0.14,0.845-0.388,1.201-0.743c0.457-0.458,0.775-1.017,0.953-1.678h4.576c-0.051,0.585-0.248,1.227-0.592,1.926
	c-0.343,0.699-0.705,1.277-1.086,1.735c-0.839,0.992-1.844,1.704-3.013,2.136c-1.17,0.432-2.39,0.648-3.661,0.648
	c-1.372,0-2.561-0.222-3.564-0.667c-1.005-0.445-1.9-1.036-2.688-1.773c-0.992-0.966-1.748-2.123-2.27-3.47
	c-0.521-1.348-0.781-2.834-0.781-4.461c0-1.602,0.235-3.083,0.705-4.442c0.471-1.36,1.188-2.523,2.154-3.489
	c0.737-0.763,1.634-1.373,2.688-1.83c1.056-0.458,2.27-0.687,3.642-0.687c1.475,0,2.848,0.299,4.118,0.896
	c1.271,0.598,2.313,1.519,3.127,2.765c0.737,1.093,1.221,2.205,1.449,3.336s0.317,2.32,0.267,3.565V18.723z M332.525,12.622
	c-0.33-0.356-0.743-0.635-1.239-0.839c-0.496-0.203-1.087-0.305-1.773-0.305c-0.737,0-1.385,0.14-1.944,0.419
	c-0.56,0.28-1.017,0.648-1.373,1.106c-0.355,0.432-0.61,0.89-0.763,1.373c-0.152,0.483-0.241,1.055-0.267,1.716h8.579
	C333.72,14.643,333.313,13.486,332.525,12.622z M359.197,28.16c-0.292,0.089-0.73,0.134-1.315,0.134
	c-1.042,0-1.843-0.28-2.402-0.839c-0.56-0.56-0.877-1.208-0.953-1.945c-0.458,0.813-1.221,1.513-2.288,2.097
	s-2.313,0.877-3.737,0.877c-1.169,0-2.205-0.171-3.107-0.515s-1.652-0.801-2.25-1.373c-0.597-0.572-1.048-1.233-1.354-1.983
	c-0.305-0.75-0.457-1.532-0.457-2.345c0-0.94,0.171-1.779,0.515-2.517c0.343-0.737,0.819-1.373,1.43-1.907s1.322-0.947,2.136-1.239
	s1.69-0.477,2.631-0.553l5.834-0.419v-1.22c0-0.941-0.223-1.697-0.667-2.269c-0.445-0.572-1.341-0.858-2.688-0.858
	c-1.118,0-1.989,0.242-2.612,0.725s-0.959,1.182-1.011,2.097h-4.613c0.076-1.119,0.337-2.084,0.781-2.898
	c0.445-0.813,1.036-1.481,1.773-2.002s1.595-0.909,2.574-1.163c0.979-0.254,2.015-0.381,3.107-0.381
	c1.703,0,3.222,0.299,4.557,0.896c1.335,0.598,2.294,1.646,2.879,3.146c0.254,0.636,0.413,1.296,0.477,1.983s0.096,1.36,0.096,2.021
	v7.359c0,0.458,0.082,0.782,0.248,0.972c0.165,0.191,0.451,0.286,0.857,0.286c0.203,0,0.344-0.013,0.42-0.038s0.14-0.038,0.19-0.038
	v3.508C359.839,27.938,359.489,28.071,359.197,28.16z M348.845,19.562c-0.737,0.051-1.398,0.292-1.983,0.725
	c-0.584,0.432-0.877,1.055-0.877,1.869c0,0.763,0.286,1.366,0.858,1.811s1.227,0.667,1.964,0.667c1.5,0,2.72-0.388,3.66-1.163
	s1.411-1.9,1.411-3.375V19.18L348.845,19.562z M371.531,28.256c-2.008,0-3.508-0.541-4.499-1.621
	c-0.991-1.081-1.487-2.574-1.487-4.48V12.088h-3.622V8.16h3.622V3.127l4.767-1.182V8.16h4.995v3.928h-4.995v9.647
	c0,0.762,0.178,1.315,0.534,1.659c0.355,0.343,0.915,0.515,1.678,0.515c0.508,0,0.984-0.013,1.43-0.038
	c0.444-0.025,0.998-0.076,1.658-0.152v4.003C374.239,28.078,372.879,28.256,371.531,28.256z M379.576,0.496h5.109v4.919h-5.109
	V0.496z M379.729,8.16h4.843v19.829h-4.843V8.16z M394.942,27.989L387.583,8.16h5.033l4.957,13.957l4.69-13.957h4.919l-7.169,19.829
	H394.942z M426.934,18.723c0,0.127-0.006,0.267-0.019,0.419c-0.013,0.153-0.02,0.292-0.02,0.419h-13.27
	c-0.025,0.763,0.089,1.487,0.343,2.174c0.255,0.686,0.623,1.258,1.106,1.716c0.355,0.331,0.769,0.616,1.239,0.858
	c0.47,0.242,1.035,0.362,1.696,0.362c0.687,0,1.252-0.07,1.697-0.21c0.444-0.14,0.845-0.388,1.201-0.743
	c0.457-0.458,0.775-1.017,0.953-1.678h4.576c-0.051,0.585-0.248,1.227-0.592,1.926c-0.343,0.699-0.705,1.277-1.086,1.735
	c-0.839,0.992-1.844,1.704-3.013,2.136c-1.17,0.432-2.39,0.648-3.661,0.648c-1.372,0-2.561-0.222-3.564-0.667
	c-1.005-0.445-1.9-1.036-2.688-1.773c-0.992-0.966-1.748-2.123-2.27-3.47c-0.521-1.348-0.781-2.834-0.781-4.461
	c0-1.602,0.235-3.083,0.705-4.442c0.471-1.36,1.188-2.523,2.154-3.489c0.737-0.763,1.634-1.373,2.688-1.83
	c1.056-0.458,2.27-0.687,3.642-0.687c1.475,0,2.848,0.299,4.118,0.896c1.271,0.598,2.313,1.519,3.127,2.765
	c0.737,1.093,1.221,2.205,1.449,3.336s0.317,2.32,0.267,3.565V18.723z M420.947,12.622c-0.33-0.356-0.743-0.635-1.239-0.839
	c-0.496-0.203-1.087-0.305-1.773-0.305c-0.737,0-1.385,0.14-1.944,0.419c-0.56,0.28-1.017,0.648-1.373,1.106
	c-0.355,0.432-0.61,0.89-0.763,1.373c-0.152,0.483-0.241,1.055-0.267,1.716h8.579C422.142,14.643,421.735,13.486,420.947,12.622z
	 M436.026,31.707c-0.572,1.131-1.697,2.053-3.375,2.765l-1.334-2.212c0.559-0.254,1.01-0.521,1.354-0.8
	c0.343-0.28,0.609-0.591,0.801-0.935c0.19-0.343,0.317-0.725,0.381-1.144s0.096-0.883,0.096-1.392h-2.86V22.04h5.796v5.491
	C436.884,29.184,436.599,30.575,436.026,31.707z M23.423,61.553c0-1.22-0.21-2.167-0.629-2.841s-1.227-1.011-2.421-1.011
	c-0.686,0-1.271,0.159-1.754,0.477s-0.883,0.737-1.201,1.259s-0.553,1.1-0.706,1.734c-0.152,0.636-0.229,1.259-0.229,1.869V73.87
	h-4.729V61.553c0-1.22-0.209-2.167-0.629-2.841s-1.227-1.011-2.421-1.011c-0.687,0-1.271,0.159-1.754,0.477s-0.89,0.737-1.22,1.259
	s-0.572,1.1-0.724,1.734c-0.153,0.636-0.229,1.259-0.229,1.869V73.87H0.048V54.041h3.966l0.381,2.632
	c0.559-0.915,1.309-1.665,2.25-2.25c0.94-0.585,2.072-0.877,3.394-0.877c1.398,0,2.567,0.286,3.508,0.858
	c0.941,0.572,1.666,1.366,2.174,2.383c0.584-1.043,1.392-1.844,2.421-2.402c1.029-0.559,2.218-0.839,3.565-0.839
	c2.135,0,3.743,0.642,4.823,1.926c1.081,1.284,1.621,2.955,1.621,5.015V73.87h-4.728V61.553z M50.571,64.604
	c0,0.127-0.006,0.267-0.019,0.419s-0.02,0.292-0.02,0.42h-13.27c-0.025,0.763,0.089,1.486,0.343,2.173
	c0.254,0.687,0.623,1.259,1.105,1.716c0.356,0.331,0.769,0.617,1.239,0.858c0.471,0.241,1.036,0.362,1.697,0.362
	c0.686,0,1.252-0.07,1.697-0.21s0.845-0.388,1.201-0.743c0.458-0.458,0.775-1.018,0.953-1.678h4.576
	c-0.051,0.584-0.248,1.227-0.591,1.926c-0.343,0.698-0.706,1.277-1.087,1.734c-0.839,0.991-1.843,1.703-3.012,2.136
	c-1.169,0.432-2.39,0.648-3.661,0.648c-1.373,0-2.561-0.223-3.565-0.668c-1.004-0.444-1.9-1.035-2.688-1.772
	c-0.991-0.967-1.748-2.123-2.269-3.471c-0.521-1.347-0.782-2.834-0.782-4.461c0-1.602,0.235-3.082,0.706-4.442
	s1.188-2.522,2.154-3.489c0.737-0.763,1.633-1.373,2.688-1.83c1.055-0.457,2.269-0.687,3.642-0.687c1.474,0,2.847,0.299,4.118,0.896
	c1.271,0.598,2.313,1.52,3.126,2.766c0.737,1.093,1.22,2.205,1.449,3.336c0.229,1.131,0.318,2.32,0.267,3.565V64.604z
	 M44.584,58.502c-0.331-0.356-0.744-0.636-1.239-0.839s-1.087-0.305-1.773-0.305c-0.737,0-1.385,0.14-1.944,0.419
	c-0.56,0.28-1.017,0.648-1.373,1.106c-0.356,0.432-0.61,0.889-0.763,1.373c-0.152,0.482-0.241,1.055-0.267,1.715h8.58
	C45.779,60.523,45.372,59.367,44.584,58.502z M67.576,71.696c-0.584,0.915-1.385,1.583-2.402,2.002
	c-1.017,0.42-2.072,0.63-3.165,0.63c-0.991,0-1.894-0.153-2.707-0.458s-1.525-0.712-2.135-1.22c-1.195-0.967-2.079-2.181-2.65-3.642
	c-0.572-1.462-0.858-3.134-0.858-5.015c0-1.957,0.292-3.68,0.877-5.167c0.585-1.487,1.475-2.714,2.669-3.68
	c0.61-0.509,1.315-0.902,2.116-1.183c0.801-0.279,1.709-0.419,2.727-0.419c1.271,0,2.345,0.185,3.222,0.553
	c0.877,0.368,1.531,0.808,1.963,1.315v-9.075H72V73.87h-4.118L67.576,71.696z M67.29,61.724c-0.114-0.75-0.336-1.436-0.667-2.059
	s-0.788-1.131-1.373-1.525c-0.584-0.395-1.347-0.591-2.288-0.591c-0.737,0-1.367,0.152-1.888,0.458
	c-0.521,0.305-0.959,0.674-1.315,1.105c-0.508,0.66-0.845,1.41-1.011,2.25c-0.165,0.838-0.248,1.689-0.248,2.555
	c0,0.864,0.083,1.722,0.248,2.573c0.166,0.852,0.502,1.608,1.011,2.27c0.356,0.432,0.794,0.801,1.315,1.105s1.15,0.458,1.888,0.458
	c0.94,0,1.703-0.197,2.288-0.592c0.585-0.394,1.042-0.902,1.373-1.524c0.331-0.623,0.553-1.316,0.667-2.079
	c0.115-0.762,0.172-1.499,0.172-2.211S67.405,62.474,67.29,61.724z M77.87,46.376h5.11v4.919h-5.11V46.376z M78.022,54.041h4.843
	V73.87h-4.843V54.041z M105.076,74.042c-0.292,0.089-0.731,0.133-1.315,0.133c-1.042,0-1.843-0.279-2.402-0.839
	c-0.559-0.559-0.877-1.207-0.953-1.944c-0.458,0.813-1.22,1.513-2.288,2.098c-1.068,0.584-2.313,0.877-3.737,0.877
	c-1.169,0-2.206-0.172-3.108-0.516c-0.902-0.343-1.652-0.801-2.25-1.372c-0.598-0.572-1.049-1.233-1.354-1.983
	c-0.305-0.75-0.458-1.531-0.458-2.345c0-0.94,0.172-1.779,0.515-2.517c0.343-0.737,0.82-1.373,1.43-1.907
	c0.61-0.533,1.322-0.946,2.135-1.238c0.813-0.293,1.69-0.477,2.631-0.553l5.834-0.42v-1.221c0-0.94-0.222-1.697-0.667-2.269
	c-0.445-0.571-1.341-0.858-2.688-0.858c-1.119,0-1.989,0.242-2.612,0.725c-0.623,0.483-0.959,1.183-1.01,2.098h-4.614
	c0.076-1.119,0.336-2.084,0.782-2.898c0.445-0.812,1.036-1.48,1.773-2.002c0.737-0.521,1.595-0.908,2.574-1.162
	c0.979-0.255,2.015-0.382,3.108-0.382c1.703,0,3.222,0.299,4.557,0.896c1.334,0.598,2.294,1.646,2.879,3.146
	c0.254,0.636,0.413,1.297,0.477,1.982c0.063,0.688,0.096,1.36,0.096,2.021v7.359c0,0.458,0.083,0.781,0.248,0.973
	c0.166,0.19,0.451,0.285,0.858,0.285c0.204,0,0.343-0.013,0.419-0.038c0.077-0.025,0.14-0.038,0.191-0.038v3.509
	C105.718,73.819,105.369,73.953,105.076,74.042z M94.724,65.443c-0.737,0.051-1.398,0.292-1.983,0.725
	c-0.585,0.432-0.877,1.055-0.877,1.868c0,0.763,0.286,1.366,0.858,1.812c0.572,0.444,1.227,0.667,1.964,0.667
	c1.5,0,2.72-0.388,3.661-1.163c0.94-0.775,1.411-1.9,1.411-3.375v-0.915L94.724,65.443z M134.474,74.042
	c-0.292,0.089-0.731,0.133-1.315,0.133c-1.042,0-1.843-0.279-2.402-0.839c-0.559-0.559-0.877-1.207-0.953-1.944
	c-0.458,0.813-1.22,1.513-2.288,2.098c-1.068,0.584-2.313,0.877-3.737,0.877c-1.169,0-2.205-0.172-3.108-0.516
	c-0.902-0.343-1.652-0.801-2.25-1.372c-0.598-0.572-1.049-1.233-1.354-1.983c-0.305-0.75-0.458-1.531-0.458-2.345
	c0-0.94,0.172-1.779,0.515-2.517c0.343-0.737,0.82-1.373,1.43-1.907c0.61-0.533,1.322-0.946,2.135-1.238
	c0.813-0.293,1.69-0.477,2.631-0.553l5.834-0.42v-1.221c0-0.94-0.222-1.697-0.667-2.269c-0.445-0.571-1.341-0.858-2.688-0.858
	c-1.119,0-1.989,0.242-2.612,0.725c-0.623,0.483-0.959,1.183-1.01,2.098h-4.614c0.076-1.119,0.336-2.084,0.782-2.898
	c0.445-0.812,1.036-1.48,1.773-2.002c0.737-0.521,1.595-0.908,2.574-1.162c0.979-0.255,2.015-0.382,3.108-0.382
	c1.703,0,3.222,0.299,4.557,0.896c1.334,0.598,2.294,1.646,2.879,3.146c0.254,0.636,0.413,1.297,0.477,1.982
	c0.064,0.688,0.096,1.36,0.096,2.021v7.359c0,0.458,0.083,0.781,0.248,0.973c0.166,0.19,0.451,0.285,0.858,0.285
	c0.204,0,0.343-0.013,0.419-0.038s0.14-0.038,0.191-0.038v3.509C135.116,73.819,134.767,73.953,134.474,74.042z M124.122,65.443
	c-0.737,0.051-1.398,0.292-1.983,0.725c-0.585,0.432-0.877,1.055-0.877,1.868c0,0.763,0.286,1.366,0.858,1.812
	c0.572,0.444,1.227,0.667,1.964,0.667c1.5,0,2.72-0.388,3.661-1.163c0.94-0.775,1.411-1.9,1.411-3.375v-0.915L124.122,65.443z
	 M151.804,61.706c0-1.169-0.229-2.085-0.687-2.745c-0.458-0.661-1.322-0.992-2.593-0.992c-0.839,0-1.538,0.235-2.097,0.706
	c-0.559,0.47-1.004,1.073-1.334,1.812c-0.356,0.787-0.553,1.658-0.591,2.611s-0.057,1.85-0.057,2.688v8.084h-4.767V54.041h4.004
	l0.343,2.556c0.584-1.042,1.417-1.812,2.498-2.308c1.081-0.495,2.193-0.743,3.336-0.743c1.068,0,2.015,0.178,2.841,0.534
	c0.826,0.355,1.525,0.845,2.097,1.468c0.572,0.622,1.011,1.366,1.316,2.23c0.305,0.864,0.458,1.817,0.458,2.86V73.87h-4.767V61.706z
	 M174.757,71.696c-0.584,0.915-1.385,1.583-2.402,2.002c-1.017,0.42-2.072,0.63-3.165,0.63c-0.991,0-1.894-0.153-2.707-0.458
	s-1.525-0.712-2.135-1.22c-1.195-0.967-2.079-2.181-2.65-3.642c-0.572-1.462-0.858-3.134-0.858-5.015
	c0-1.957,0.292-3.68,0.877-5.167c0.585-1.487,1.475-2.714,2.669-3.68c0.61-0.509,1.315-0.902,2.116-1.183
	c0.801-0.279,1.709-0.419,2.727-0.419c1.271,0,2.345,0.185,3.222,0.553c0.877,0.368,1.532,0.808,1.964,1.315v-9.075h4.767V73.87
	h-4.118L174.757,71.696z M174.471,61.724c-0.114-0.75-0.336-1.436-0.667-2.059s-0.788-1.131-1.373-1.525
	c-0.584-0.395-1.347-0.591-2.288-0.591c-0.737,0-1.367,0.152-1.888,0.458c-0.521,0.305-0.959,0.674-1.315,1.105
	c-0.508,0.66-0.845,1.41-1.011,2.25c-0.165,0.838-0.248,1.689-0.248,2.555c0,0.864,0.083,1.722,0.248,2.573
	c0.166,0.852,0.502,1.608,1.011,2.27c0.356,0.432,0.794,0.801,1.315,1.105s1.15,0.458,1.888,0.458c0.94,0,1.703-0.197,2.288-0.592
	c0.585-0.394,1.042-0.902,1.373-1.524c0.331-0.623,0.553-1.316,0.667-2.079c0.115-0.762,0.172-1.499,0.172-2.211
	S174.586,62.474,174.471,61.724z M205.643,71.696c-0.585,0.915-1.386,1.583-2.402,2.002c-1.018,0.42-2.072,0.63-3.166,0.63
	c-0.991,0-1.894-0.153-2.707-0.458s-1.525-0.712-2.135-1.22c-1.195-0.967-2.079-2.181-2.65-3.642
	c-0.572-1.462-0.858-3.134-0.858-5.015c0-1.957,0.292-3.68,0.877-5.167c0.585-1.487,1.475-2.714,2.669-3.68
	c0.61-0.509,1.315-0.902,2.116-1.183c0.801-0.279,1.709-0.419,2.727-0.419c1.271,0,2.345,0.185,3.222,0.553s1.532,0.808,1.964,1.315
	v-9.075h4.767V73.87h-4.118L205.643,71.696z M205.356,61.724c-0.114-0.75-0.337-1.436-0.668-2.059
	c-0.33-0.623-0.788-1.131-1.372-1.525c-0.585-0.395-1.348-0.591-2.288-0.591c-0.737,0-1.367,0.152-1.888,0.458
	c-0.521,0.305-0.959,0.674-1.315,1.105c-0.508,0.66-0.845,1.41-1.011,2.25c-0.165,0.838-0.248,1.689-0.248,2.555
	c0,0.864,0.083,1.722,0.248,2.573c0.166,0.852,0.502,1.608,1.011,2.27c0.356,0.432,0.794,0.801,1.315,1.105s1.15,0.458,1.888,0.458
	c0.94,0,1.703-0.197,2.288-0.592c0.584-0.394,1.042-0.902,1.372-1.524c0.331-0.623,0.554-1.316,0.668-2.079
	c0.114-0.762,0.171-1.499,0.171-2.211S205.471,62.474,205.356,61.724z M232.79,64.604c0,0.127-0.006,0.267-0.019,0.419
	s-0.02,0.292-0.02,0.42h-13.27c-0.025,0.763,0.089,1.486,0.343,2.173c0.255,0.687,0.623,1.259,1.106,1.716
	c0.355,0.331,0.769,0.617,1.239,0.858c0.47,0.241,1.036,0.362,1.696,0.362c0.687,0,1.252-0.07,1.697-0.21
	c0.444-0.14,0.845-0.388,1.201-0.743c0.457-0.458,0.775-1.018,0.953-1.678h4.576c-0.051,0.584-0.248,1.227-0.592,1.926
	c-0.343,0.698-0.705,1.277-1.086,1.734c-0.839,0.991-1.844,1.703-3.013,2.136c-1.17,0.432-2.39,0.648-3.661,0.648
	c-1.372,0-2.561-0.223-3.564-0.668c-1.005-0.444-1.9-1.035-2.688-1.772c-0.991-0.967-1.748-2.123-2.27-3.471
	c-0.521-1.347-0.781-2.834-0.781-4.461c0-1.602,0.235-3.082,0.705-4.442c0.471-1.36,1.188-2.522,2.154-3.489
	c0.737-0.763,1.634-1.373,2.688-1.83c1.056-0.457,2.27-0.687,3.642-0.687c1.475,0,2.848,0.299,4.118,0.896
	c1.271,0.598,2.313,1.52,3.127,2.766c0.737,1.093,1.221,2.205,1.449,3.336s0.317,2.32,0.267,3.565V64.604z M226.804,58.502
	c-0.33-0.356-0.743-0.636-1.239-0.839s-1.087-0.305-1.773-0.305c-0.737,0-1.385,0.14-1.944,0.419
	c-0.56,0.28-1.017,0.648-1.373,1.106c-0.355,0.432-0.61,0.889-0.763,1.373c-0.152,0.482-0.241,1.055-0.267,1.715h8.579
	C227.998,60.523,227.592,59.367,226.804,58.502z M252.18,70.248c-0.318,0.711-0.731,1.321-1.24,1.83
	c-0.813,0.813-1.805,1.398-2.974,1.754c-1.17,0.355-2.44,0.534-3.813,0.534c-1.271,0-2.453-0.185-3.546-0.554
	c-1.094-0.368-2.047-0.946-2.86-1.734c-0.584-0.56-1.08-1.233-1.487-2.021c-0.406-0.788-0.609-1.652-0.609-2.593h4.461
	c0,0.433,0.102,0.864,0.306,1.297c0.203,0.432,0.457,0.775,0.762,1.029c0.382,0.305,0.808,0.527,1.278,0.667
	c0.47,0.14,1.048,0.21,1.734,0.21c0.407,0,0.846-0.031,1.315-0.096c0.471-0.063,0.909-0.184,1.315-0.362
	c0.407-0.178,0.744-0.432,1.011-0.762c0.268-0.331,0.4-0.763,0.4-1.297c0-0.585-0.178-1.055-0.533-1.411
	c-0.356-0.355-0.84-0.584-1.449-0.687c-0.89-0.127-1.805-0.234-2.746-0.324c-0.94-0.089-1.855-0.234-2.745-0.438
	c-0.687-0.152-1.303-0.394-1.85-0.724c-0.546-0.331-1.023-0.731-1.43-1.201c-0.407-0.471-0.718-0.992-0.935-1.564
	c-0.216-0.571-0.324-1.176-0.324-1.811c0-1.018,0.191-1.888,0.572-2.612c0.382-0.724,0.864-1.341,1.449-1.849
	c0.737-0.637,1.614-1.125,2.631-1.469s2.148-0.515,3.394-0.515c1.195,0,2.346,0.19,3.451,0.571c1.105,0.382,2.027,0.967,2.765,1.755
	c0.534,0.585,0.96,1.227,1.277,1.925c0.317,0.699,0.477,1.418,0.477,2.155h-4.537c0-0.382-0.077-0.725-0.229-1.03
	c-0.152-0.305-0.343-0.584-0.571-0.838c-0.28-0.28-0.655-0.502-1.125-0.668c-0.471-0.165-0.96-0.248-1.469-0.248
	c-0.355,0-0.699,0.014-1.029,0.039s-0.674,0.113-1.029,0.267c-0.433,0.178-0.795,0.444-1.087,0.801s-0.438,0.788-0.438,1.296
	c0,0.713,0.248,1.201,0.743,1.469c0.496,0.267,1.011,0.438,1.545,0.515c0.457,0.051,0.839,0.095,1.144,0.134l0.915,0.113
	c0.306,0.039,0.623,0.084,0.953,0.135c0.331,0.051,0.737,0.113,1.221,0.189c1.576,0.255,2.872,0.858,3.89,1.812
	c1.017,0.952,1.525,2.218,1.525,3.793C252.656,68.697,252.497,69.536,252.18,70.248z M257.04,46.376h5.109v4.919h-5.109V46.376z
	 M257.192,54.041h4.843V73.87h-4.843V54.041z M284.608,79.742c-0.585,0.864-1.335,1.545-2.25,2.04
	c-0.915,0.496-1.938,0.846-3.069,1.049s-2.256,0.305-3.375,0.305c-1.22,0-2.434-0.089-3.642-0.267
	c-1.207-0.178-2.332-0.636-3.374-1.373c-0.763-0.533-1.354-1.156-1.773-1.868c-0.419-0.712-0.629-1.538-0.629-2.479
	c0-0.864,0.203-1.659,0.61-2.383c0.406-0.725,0.991-1.277,1.754-1.659c-0.636-0.355-1.125-0.845-1.469-1.468
	c-0.343-0.623-0.515-1.265-0.515-1.926c0-1.703,0.788-3.038,2.364-4.004c-0.61-0.61-1.093-1.321-1.449-2.136
	c-0.355-0.812-0.533-1.729-0.533-2.745c0-1.194,0.216-2.243,0.648-3.146c0.432-0.902,1.017-1.659,1.754-2.27
	c0.737-0.609,1.595-1.074,2.573-1.392c0.979-0.317,2.027-0.477,3.146-0.477c0.813,0,1.602,0.108,2.364,0.324
	s1.474,0.515,2.135,0.896c0.433-0.863,1.004-1.493,1.716-1.887c0.712-0.395,1.487-0.592,2.326-0.592h0.648
	c0.279,0,0.496,0.025,0.648,0.076v3.699c-0.051,0-0.114-0.006-0.19-0.02c-0.077-0.012-0.141-0.019-0.191-0.019
	c-0.559,0-1.061,0.089-1.506,0.267s-0.743,0.509-0.896,0.992c0.687,1.118,1.03,2.312,1.03,3.584c0,1.145-0.223,2.16-0.668,3.051
	c-0.444,0.89-1.035,1.64-1.772,2.25c-0.737,0.609-1.596,1.08-2.574,1.41c-0.979,0.331-2.002,0.496-3.069,0.496
	c-1.119,0-2.187-0.178-3.203-0.534c-0.229,0.127-0.451,0.312-0.668,0.553c-0.216,0.242-0.323,0.528-0.323,0.858
	c0,0.585,0.234,0.973,0.705,1.163c0.47,0.19,0.96,0.286,1.468,0.286h3.279c0.509,0,1.036,0.006,1.583,0.019
	c0.546,0.013,1.105,0.063,1.678,0.152c0.571,0.09,1.131,0.223,1.678,0.4c0.546,0.179,1.049,0.433,1.506,0.763
	c0.864,0.585,1.48,1.284,1.85,2.098c0.368,0.813,0.553,1.703,0.553,2.669C285.485,77.797,285.193,78.877,284.608,79.742z
	 M280.49,75.205c-0.33-0.331-0.73-0.572-1.201-0.725s-0.979-0.242-1.525-0.268s-1.049-0.038-1.506-0.038h-3.737
	c-0.508,0.153-0.934,0.438-1.277,0.858c-0.343,0.419-0.515,0.947-0.515,1.582c0,0.636,0.172,1.132,0.515,1.487
	c0.344,0.356,0.77,0.629,1.277,0.82c0.509,0.19,1.055,0.312,1.64,0.362s1.106,0.076,1.563,0.076c0.483,0,1.029-0.02,1.64-0.058
	s1.183-0.146,1.716-0.324c0.534-0.178,0.985-0.451,1.354-0.819c0.369-0.369,0.554-0.884,0.554-1.545
	C280.986,76.005,280.82,75.535,280.49,75.205z M277.954,58.178c-0.622-0.698-1.48-1.048-2.573-1.048
	c-1.094,0-1.951,0.35-2.574,1.048c-0.623,0.699-0.935,1.583-0.935,2.65s0.312,1.944,0.935,2.631s1.48,1.029,2.574,1.029
	c1.093,0,1.951-0.343,2.573-1.029c0.623-0.687,0.935-1.563,0.935-2.631S278.577,58.877,277.954,58.178z M301.156,61.706
	c0-1.169-0.229-2.085-0.687-2.745c-0.458-0.661-1.322-0.992-2.593-0.992c-0.84,0-1.538,0.235-2.098,0.706
	c-0.56,0.47-1.004,1.073-1.335,1.812c-0.355,0.787-0.553,1.658-0.591,2.611s-0.057,1.85-0.057,2.688v8.084h-4.767V54.041h4.004
	l0.343,2.556c0.585-1.042,1.417-1.812,2.498-2.308c1.08-0.495,2.192-0.743,3.336-0.743c1.067,0,2.015,0.178,2.841,0.534
	c0.826,0.355,1.525,0.845,2.098,1.468c0.571,0.622,1.01,1.366,1.315,2.23c0.305,0.864,0.457,1.817,0.457,2.86V73.87h-4.766V61.706z
	 M335.758,74.042c-0.292,0.089-0.73,0.133-1.315,0.133c-1.042,0-1.843-0.279-2.402-0.839c-0.56-0.559-0.877-1.207-0.953-1.944
	c-0.458,0.813-1.221,1.513-2.288,2.098c-1.067,0.584-2.313,0.877-3.737,0.877c-1.169,0-2.205-0.172-3.107-0.516
	c-0.902-0.343-1.652-0.801-2.25-1.372c-0.597-0.572-1.048-1.233-1.354-1.983c-0.305-0.75-0.457-1.531-0.457-2.345
	c0-0.94,0.171-1.779,0.515-2.517c0.343-0.737,0.819-1.373,1.43-1.907c0.61-0.533,1.322-0.946,2.136-1.238
	c0.813-0.293,1.69-0.477,2.631-0.553l5.834-0.42v-1.221c0-0.94-0.223-1.697-0.667-2.269c-0.445-0.571-1.341-0.858-2.688-0.858
	c-1.118,0-1.989,0.242-2.612,0.725c-0.623,0.483-0.959,1.183-1.011,2.098h-4.613c0.076-1.119,0.337-2.084,0.781-2.898
	c0.445-0.812,1.036-1.48,1.773-2.002c0.737-0.521,1.595-0.908,2.574-1.162c0.979-0.255,2.015-0.382,3.107-0.382
	c1.703,0,3.222,0.299,4.557,0.896c1.335,0.598,2.294,1.646,2.879,3.146c0.254,0.636,0.413,1.297,0.477,1.982
	c0.063,0.688,0.096,1.36,0.096,2.021v7.359c0,0.458,0.082,0.781,0.248,0.973c0.165,0.19,0.451,0.285,0.857,0.285
	c0.203,0,0.344-0.013,0.42-0.038s0.14-0.038,0.19-0.038v3.509C336.399,73.819,336.05,73.953,335.758,74.042z M325.405,65.443
	c-0.737,0.051-1.398,0.292-1.983,0.725c-0.584,0.432-0.877,1.055-0.877,1.868c0,0.763,0.286,1.366,0.858,1.812
	c0.572,0.444,1.227,0.667,1.964,0.667c1.5,0,2.72-0.388,3.66-1.163s1.411-1.9,1.411-3.375v-0.915L325.405,65.443z M357.549,79.742
	c-0.585,0.864-1.335,1.545-2.25,2.04c-0.915,0.496-1.938,0.846-3.069,1.049s-2.256,0.305-3.375,0.305
	c-1.22,0-2.434-0.089-3.642-0.267c-1.207-0.178-2.332-0.636-3.374-1.373c-0.763-0.533-1.354-1.156-1.773-1.868
	c-0.419-0.712-0.629-1.538-0.629-2.479c0-0.864,0.203-1.659,0.61-2.383c0.406-0.725,0.991-1.277,1.754-1.659
	c-0.636-0.355-1.125-0.845-1.469-1.468c-0.343-0.623-0.515-1.265-0.515-1.926c0-1.703,0.788-3.038,2.364-4.004
	c-0.61-0.61-1.093-1.321-1.449-2.136c-0.355-0.812-0.533-1.729-0.533-2.745c0-1.194,0.216-2.243,0.648-3.146
	c0.432-0.902,1.017-1.659,1.754-2.27c0.737-0.609,1.595-1.074,2.573-1.392c0.979-0.317,2.027-0.477,3.146-0.477
	c0.813,0,1.602,0.108,2.364,0.324s1.474,0.515,2.135,0.896c0.433-0.863,1.004-1.493,1.716-1.887
	c0.712-0.395,1.487-0.592,2.326-0.592h0.648c0.279,0,0.496,0.025,0.648,0.076v3.699c-0.051,0-0.114-0.006-0.19-0.02
	c-0.077-0.012-0.141-0.019-0.191-0.019c-0.559,0-1.061,0.089-1.506,0.267s-0.743,0.509-0.896,0.992
	c0.687,1.118,1.03,2.312,1.03,3.584c0,1.145-0.223,2.16-0.668,3.051c-0.444,0.89-1.035,1.64-1.772,2.25
	c-0.737,0.609-1.596,1.08-2.574,1.41c-0.979,0.331-2.002,0.496-3.069,0.496c-1.119,0-2.187-0.178-3.203-0.534
	c-0.229,0.127-0.451,0.312-0.668,0.553c-0.216,0.242-0.323,0.528-0.323,0.858c0,0.585,0.234,0.973,0.705,1.163
	c0.47,0.19,0.96,0.286,1.468,0.286h3.279c0.509,0,1.036,0.006,1.583,0.019c0.546,0.013,1.105,0.063,1.678,0.152
	c0.571,0.09,1.131,0.223,1.678,0.4c0.546,0.179,1.049,0.433,1.506,0.763c0.864,0.585,1.48,1.284,1.85,2.098
	c0.368,0.813,0.553,1.703,0.553,2.669C358.426,77.797,358.134,78.877,357.549,79.742z M353.431,75.205
	c-0.33-0.331-0.73-0.572-1.201-0.725s-0.979-0.242-1.525-0.268s-1.049-0.038-1.506-0.038h-3.737
	c-0.508,0.153-0.934,0.438-1.277,0.858c-0.343,0.419-0.515,0.947-0.515,1.582c0,0.636,0.172,1.132,0.515,1.487
	c0.344,0.356,0.77,0.629,1.277,0.82c0.509,0.19,1.055,0.312,1.64,0.362s1.106,0.076,1.563,0.076c0.483,0,1.029-0.02,1.64-0.058
	s1.183-0.146,1.716-0.324c0.534-0.178,0.985-0.451,1.354-0.819c0.369-0.369,0.554-0.884,0.554-1.545
	C353.927,76.005,353.761,75.535,353.431,75.205z M350.895,58.178c-0.622-0.698-1.48-1.048-2.573-1.048
	c-1.094,0-1.951,0.35-2.574,1.048c-0.623,0.699-0.935,1.583-0.935,2.65s0.312,1.944,0.935,2.631s1.48,1.029,2.574,1.029
	c1.093,0,1.951-0.343,2.573-1.029c0.623-0.687,0.935-1.563,0.935-2.631S351.518,58.877,350.895,58.178z M378.749,64.604
	c0,0.127-0.006,0.267-0.019,0.419s-0.02,0.292-0.02,0.42h-13.27c-0.025,0.763,0.089,1.486,0.343,2.173
	c0.255,0.687,0.623,1.259,1.106,1.716c0.355,0.331,0.769,0.617,1.239,0.858c0.47,0.241,1.036,0.362,1.696,0.362
	c0.687,0,1.252-0.07,1.697-0.21c0.444-0.14,0.845-0.388,1.201-0.743c0.457-0.458,0.775-1.018,0.953-1.678h4.576
	c-0.051,0.584-0.248,1.227-0.592,1.926c-0.343,0.698-0.705,1.277-1.086,1.734c-0.839,0.991-1.844,1.703-3.013,2.136
	c-1.17,0.432-2.39,0.648-3.661,0.648c-1.372,0-2.561-0.223-3.564-0.668c-1.005-0.444-1.9-1.035-2.688-1.772
	c-0.991-0.967-1.748-2.123-2.27-3.471c-0.521-1.347-0.781-2.834-0.781-4.461c0-1.602,0.235-3.082,0.705-4.442
	c0.471-1.36,1.188-2.522,2.154-3.489c0.737-0.763,1.634-1.373,2.688-1.83c1.056-0.457,2.27-0.687,3.642-0.687
	c1.475,0,2.848,0.299,4.118,0.896c1.271,0.598,2.313,1.52,3.127,2.766c0.737,1.093,1.221,2.205,1.449,3.336s0.317,2.32,0.267,3.565
	V64.604z M372.763,58.502c-0.33-0.356-0.743-0.636-1.239-0.839s-1.087-0.305-1.773-0.305c-0.737,0-1.385,0.14-1.944,0.419
	c-0.56,0.28-1.017,0.648-1.373,1.106c-0.355,0.432-0.61,0.889-0.763,1.373c-0.152,0.482-0.241,1.055-0.267,1.715h8.579
	C373.957,60.523,373.551,59.367,372.763,58.502z M395.335,61.706c0-1.169-0.229-2.085-0.687-2.745
	c-0.458-0.661-1.322-0.992-2.593-0.992c-0.839,0-1.538,0.235-2.098,0.706c-0.56,0.47-1.004,1.073-1.335,1.812
	c-0.355,0.787-0.553,1.658-0.591,2.611s-0.057,1.85-0.057,2.688v8.084h-4.767V54.041h4.004l0.343,2.556
	c0.585-1.042,1.417-1.812,2.498-2.308c1.08-0.495,2.192-0.743,3.336-0.743c1.067,0,2.015,0.178,2.841,0.534
	c0.826,0.355,1.525,0.845,2.098,1.468c0.571,0.622,1.01,1.366,1.315,2.23c0.305,0.864,0.457,1.817,0.457,2.86V73.87h-4.766V61.706z
	 M421.301,69.161c-0.255,0.75-0.61,1.417-1.068,2.002c-0.686,0.864-1.607,1.602-2.764,2.211c-1.157,0.61-2.498,0.916-4.023,0.916
	s-2.885-0.312-4.08-0.935c-1.194-0.623-2.136-1.354-2.821-2.192c-0.737-0.94-1.284-2.021-1.64-3.241
	c-0.356-1.221-0.534-2.555-0.534-4.004s0.178-2.783,0.534-4.004c0.355-1.221,0.902-2.301,1.64-3.241
	c0.686-0.839,1.627-1.569,2.821-2.192c1.195-0.623,2.555-0.935,4.08-0.935s2.866,0.306,4.023,0.915
	c1.156,0.61,2.078,1.348,2.764,2.212c0.458,0.585,0.813,1.252,1.068,2.002c0.254,0.75,0.406,1.519,0.457,2.307h-4.689
	c-0.025-0.356-0.09-0.687-0.191-0.991s-0.229-0.585-0.381-0.839c-0.279-0.433-0.674-0.788-1.183-1.067
	c-0.508-0.28-1.131-0.42-1.868-0.42c-0.661,0-1.227,0.114-1.696,0.344c-0.471,0.229-0.871,0.521-1.201,0.877
	c-0.585,0.635-0.954,1.398-1.106,2.287c-0.152,0.891-0.229,1.805-0.229,2.746c0,0.94,0.076,1.85,0.229,2.727
	s0.521,1.633,1.106,2.269c0.33,0.355,0.73,0.654,1.201,0.896c0.47,0.242,1.035,0.362,1.696,0.362c0.737,0,1.36-0.14,1.868-0.419
	c0.509-0.279,0.903-0.636,1.183-1.067c0.152-0.255,0.279-0.534,0.381-0.839c0.102-0.306,0.166-0.636,0.191-0.992h4.689
	C421.707,67.641,421.555,68.411,421.301,69.161z M433.598,79.151c-0.344,0.598-0.757,1.125-1.24,1.582
	c-0.482,0.458-1.048,0.82-1.696,1.087c-0.648,0.268-1.404,0.4-2.269,0.4c-0.788,0-1.469-0.051-2.04-0.152
	c-0.572-0.102-1.112-0.216-1.621-0.343v-3.966c0.305,0.051,0.565,0.102,0.782,0.152c0.216,0.051,0.419,0.089,0.609,0.114
	c0.191,0.025,0.388,0.045,0.592,0.058c0.203,0.013,0.432,0.019,0.686,0.019c0.433,0,0.858-0.102,1.277-0.305
	c0.42-0.203,0.757-0.598,1.011-1.183l1.145-2.783l-7.817-19.791h5.224l5.187,14.338l4.957-14.338h4.843l-8.732,23.223
	C434.239,77.924,433.94,78.553,433.598,79.151z"/>
</svg>
